<svg xmlns="http://www.w3.org/2000/svg" xmlns:xlink="http://www.w3.org/1999/xlink" id="Group_2" data-name="Group 2" width="168.894" height="99.173" viewBox="0 0 168.894 99.173"><defs><clipPath id="clip-path"><rect id="Rectangle_2" data-name="Rectangle 2" width="168.894" height="99.173" fill="#01434d"></rect></clipPath></defs><g id="Group_1" data-name="Group 1" clip-path="url(#clip-path)"><path id="Path_1" data-name="Path 1" d="M.205,46.8V36.721H.514c4.628,5.657,10.8,12.034,18.514,12.034,5.349,0,11.006-2.983,11.006-9.361,0-5.965-4.937-8.023-13.372-10.9C6.788,25.2,0,22.321,0,14.092,0,5.143,7.92,0,17.794,0A38.977,38.977,0,0,1,34.766,4.423v9.361h-.411c-4.731-6.069-10.183-10.6-16.972-10.6-5.657,0-10.9,3.086-10.9,8.435,0,5.76,5.451,7.2,13.989,9.977C30.446,24.892,36.1,28.7,36.1,37.03c0,9.977-7.921,15.018-17.486,15.018C12.96,52.047,6.788,50.3.205,46.8" transform="translate(0 0)" fill="#01434d"></path><path id="Path_2" data-name="Path 2" d="M255.537,37.132c0-11.931,13.886-18.617,30.035-15.532.823.206,1.543.309,2.16.515V15.224c0-8.126-4.937-11.932-10.8-11.932-6.686,0-14.709,6.686-18.206,11.417h-.308V4.32A48.143,48.143,0,0,1,277.241,0c10.595,0,17.794,5.246,17.794,15.121V42.79c0,4.629,2.88,5.863,6.583,4.834l.1.309a7.783,7.783,0,0,1-6.583,3.6c-4.32,0-7.1-2.675-7.406-7.1a19.785,19.785,0,0,1-15.841,7.612c-10.388,0-16.355-6.994-16.355-14.915m19.543,10.7c4.629,0,9.258-2.674,12.652-7.1V25l-.617-.1c-15.121-3.086-23.76,3.7-23.76,11.829,0,6.583,5.451,11.109,11.725,11.109" transform="translate(-217.994 0)" fill="#01434d"></path><path id="Path_3" data-name="Path 3" d="M850.631,25.922C850.631,10.287,860.506,0,873.466,0c12.343,0,20.881,9.463,20.881,24.069H858.654v.617c0,12.652,6.583,22.012,18,22.012,5.863,0,11.623-2.468,17.589-8.64l.309.206c-3.806,8.435-11.52,13.783-20.778,13.783-12.857,0-23.144-10.183-23.144-26.126m8.126-4.629,27.67-.822c-.515-10.7-5.04-17.383-13.064-17.383-8.846,0-13.783,7.817-14.606,18.205" transform="translate(-725.659 -0.001)" fill="#01434d"></path><path id="Path_4" data-name="Path 4" d="M604.741,2.3H588.688A23.274,23.274,0,0,0,578.557,0c-10.08,0-19.749,6.789-19.749,17.9a16.963,16.963,0,0,0,7.818,14.5c-4.217,1.337-7.406,4.423-7.406,9.669a7.666,7.666,0,0,0,4.32,7.406,11.993,11.993,0,0,0-5.554,9.977c0,9.978,12.96,12.446,21.909,12.446,8.127,0,24.069-1.749,24.069-15.018,0-8.434-6.068-13.063-14.4-13.063H572.9c-3.806,0-8.538-.617-8.538-4.731,0-2.572,2.058-4.526,4.732-5.246a23.031,23.031,0,0,0,9.463,2.057c10.081,0,20.058-6.789,20.058-18a16.363,16.363,0,0,0-5.162-12.156l11.288.7ZM566.214,50.5a23.54,23.54,0,0,0,5.76.617h17.589c5.76,0,8.229,3.6,8.229,7.406,0,5.246-5.452,10.183-16.869,10.183-10.7,0-17.177-4.32-17.177-11.315a10.34,10.34,0,0,1,2.469-6.892m12.343-17.692c-6.892,0-12.137-5.348-12.137-14.914s5.245-14.915,12.137-14.915c6.995,0,12.343,5.348,12.343,14.915s-5.348,14.914-12.343,14.914" transform="translate(-476.007)" fill="#01434d"></path><path id="Path_5" data-name="Path 5" d="M114.261,548.608l.04.04c1.079-1.239,2.718-2.878,4.516-2.878,1.6,0,2.258,1.019,2.258,2.538,0,3.2-3.657,6.894-6.814,6.894a2.1,2.1,0,0,1-2.379-2.138,6.174,6.174,0,0,1,.24-1.479l2.638-10.511-.94-.579.06-.36a15.425,15.425,0,0,0,1.539-.259c.359-.08.919-.2,1.279-.32l.16.12Zm4.016-2.018c-2.477,0-4.915,4.156-4.915,6.394,0,.819.3,1.7,1.219,1.7,2.458,0,4.9-4.416,4.9-6.694,0-.76-.28-1.4-1.2-1.4" transform="translate(-95.445 -460.286)" fill="#01434d"></path><path id="Path_6" data-name="Path 6" d="M185.95,585.152l-.48-.28c0-1.319.54-3.018,2.158-3.018,2.818,0,2.779,6.235,3.177,8.153.839-1.5,2.178-3.577,2.178-5.315,0-.739-.24-1.079-.24-1.639,0-.6.32-1.2.94-1.2.579,0,.779.54.779,1.059,0,2.2-3.218,7.694-4.636,9.492-.839,1.1-2.218,3.137-3.816,3.137a.833.833,0,0,1-.82-.8.732.732,0,0,1,.719-.82c.26,0,.52.14.839.14a2.3,2.3,0,0,0,1.7-.959l1.079-1.259-.06-1.039-.179-1.658c-.32-2.3-1.04-5.815-2.338-5.815a.9.9,0,0,0-.959.919,1.977,1.977,0,0,0,.139.76Z" transform="translate(-157.982 -496.371)" fill="#01434d"></path><path id="Path_7" data-name="Path 7" d="M308.787,556.432v4.636c0,1.4.759,1.419,1.818,1.439v.519c-.958,0-1.818-.04-2.7-.04-.959,0-1.9.02-2.9.04v-.519c1,.06,1.818-.2,1.818-1.339V551.037c0-1.4-.759-1.419-1.818-1.439v-.519c1.1.02,2.058.04,3.037.04.7,0,1.4-.04,2.678-.04,3.777,0,4.616,2.118,4.616,3.536a3.677,3.677,0,0,1-2.838,3.418c1.819,2.657,2.778,4.256,3.637,5.215a2.892,2.892,0,0,0,2.258,1.259v.519c-.5,0-1-.04-1.5-.04-.559,0-1.138.02-1.7.04a46.915,46.915,0,0,1-4.6-6.594Zm1.2-6.714a6.6,6.6,0,0,0-1.2.12v5.855a5.953,5.953,0,0,0,1.059.1c2.458,0,3.417-1.619,3.417-3.057,0-1.738-.92-3.017-3.277-3.017" transform="translate(-260.199 -468.41)" fill="#01434d"></path><path id="Path_8" data-name="Path 8" d="M417.217,555.8a20.2,20.2,0,0,0,1.138,2.917,1.89,1.89,0,0,0,1.538.54v.519c-.759,0-1.538-.04-2.3-.04-.98,0-1.938.02-2.918.04v-.519h.36c.5,0,1.1-.1,1.1-.66a4.935,4.935,0,0,0-.3-1.159l-1-2.9h-4.7l-.44,1.4a9.635,9.635,0,0,0-.54,2.378c0,.939.659.9,1.359.939h.46v.519c-.779,0-1.579-.04-2.358-.04-.8,0-1.619.02-2.418.04v-.519c1.219-.14,1.439-.3,1.938-1.419.319-.719.559-1.5.819-2.238l2.558-7.134a6.092,6.092,0,0,0,.419-1.8,2.117,2.117,0,0,0-.04-.519,2.473,2.473,0,0,0,1.159-.879h.34Zm-6.794-2.078h4.116l-2.139-5.875h-.04Z" transform="translate(-346.527 -465.16)" fill="#01434d"></path><path id="Path_9" data-name="Path 9" d="M523.02,550.912h-.44c-.52-2.318-2.458-3.237-4.7-3.237-3.537,0-5.574,3.1-5.574,6.355,0,3.457,2.118,6.914,5.715,6.914a4.317,4.317,0,0,0,2.7-.779v-2.977c0-1.458-.759-1.458-1.818-1.458v-.519c.939.02,1.859.04,2.757.04.92,0,1.839-.02,2.439-.04v.519c-.66,0-1.419,0-1.419,1.458V559.8l.3.3v.34a16.052,16.052,0,0,1-5.2,1.139,7.28,7.28,0,1,1-.24-14.548,14.668,14.668,0,0,1,5.136,1.079Z" transform="translate(-435.167 -466.666)" fill="#01434d"></path><path id="Path_10" data-name="Path 10" d="M628.864,555.393v-4.357c0-1.4-.76-1.419-1.819-1.439v-.519c1.059.02,2,.04,2.958.04.86,0,1.739-.04,2.638-.04v.519c-1.059.02-1.819.04-1.819,1.439v10.031c0,1.4.76,1.419,1.819,1.439v.52c-.9-.02-1.8-.04-2.7-.04-.939,0-1.858.02-2.9.04v-.52c1.059-.02,1.819-.04,1.819-1.439v-4.856h-8.073v4.856c0,1.4.759,1.419,1.818,1.439v.52c-.959,0-1.818-.04-2.7-.04-.959,0-1.9.02-2.9.04v-.52c1.059-.02,1.818-.04,1.818-1.439V551.036c0-1.4-.759-1.419-1.818-1.439v-.519c.939.02,1.858.04,2.757.04.92,0,1.838-.02,2.838-.04v.519c-1.059.02-1.818.04-1.818,1.439v4.357Z" transform="translate(-526.364 -468.409)" fill="#01434d"></path><path id="Path_11" data-name="Path 11" d="M745.807,555.8a20.177,20.177,0,0,0,1.139,2.917,1.889,1.889,0,0,0,1.538.54v.519c-.759,0-1.538-.04-2.3-.04-.98,0-1.938.02-2.918.04v-.519h.36c.5,0,1.1-.1,1.1-.66a4.934,4.934,0,0,0-.3-1.159l-1-2.9h-4.7l-.44,1.4a9.633,9.633,0,0,0-.54,2.378c0,.939.659.9,1.359.939h.46v.519c-.779,0-1.579-.04-2.358-.04-.8,0-1.619.02-2.418.04v-.519c1.219-.14,1.439-.3,1.938-1.419.319-.719.559-1.5.819-2.238l2.558-7.134a6.092,6.092,0,0,0,.419-1.8,2.116,2.116,0,0,0-.04-.519,2.473,2.473,0,0,0,1.159-.879h.34Zm-6.794-2.078h4.116l-2.139-5.875h-.04Z" transform="translate(-626.842 -465.16)" fill="#01434d"></path><path id="Path_12" data-name="Path 12" d="M823.432,555.053c-.5-1.279-1.078-2.578-1.538-3.877-.46-1.2-.779-1.578-2.1-1.578v-.519c.939.02,1.878.04,2.817.04.839,0,1.7-.04,2.538-.04v.519c-.3.02-.58.02-.86.06a.5.5,0,0,0-.52.48,21.421,21.421,0,0,0,1.279,3.657l2.658,6.834,1.518-3.956c.48-1.3,1.04-2.578,1.459-3.877a9.441,9.441,0,0,0,.62-2.278c0-.939-.8-.879-1.519-.919v-.519c.779.02,1.579.04,2.358.04.62,0,1.238-.02,1.858-.04v.519a1.413,1.413,0,0,0-1.339.779c-.119.22-1.478,3.677-1.518,3.777l-3.658,9.172h-.739Z" transform="translate(-699.354 -468.409)" fill="#01434d"></path><path id="Path_13" data-name="Path 13" d="M921.934,555.8a20.207,20.207,0,0,0,1.139,2.917,1.89,1.89,0,0,0,1.538.54v.519c-.759,0-1.538-.04-2.3-.04-.98,0-1.938.02-2.918.04v-.519h.36c.5,0,1.1-.1,1.1-.66a4.938,4.938,0,0,0-.3-1.159l-1-2.9h-4.7l-.44,1.4a9.628,9.628,0,0,0-.54,2.378c0,.939.659.9,1.359.939h.46v.519c-.779,0-1.579-.04-2.358-.04-.8,0-1.619.02-2.417.04v-.519c1.219-.14,1.439-.3,1.938-1.419.319-.719.56-1.5.819-2.238l2.558-7.134a6.094,6.094,0,0,0,.419-1.8,2.119,2.119,0,0,0-.04-.519,2.473,2.473,0,0,0,1.159-.879h.34Zm-6.794-2.078h4.116l-2.139-5.875h-.04Z" transform="translate(-777.094 -465.16)" fill="#01434d"></path></g></svg>